<?xml version="1.0" standalone="no"?><!DOCTYPE svg PUBLIC "-//W3C//DTD SVG 1.1//EN"
        "http://www.w3.org/Graphics/SVG/1.1/DTD/svg11.dtd">
<svg width="200" height="200" viewBox="0 0 200 200" version="1.1" xmlns="http://www.w3.org/2000/svg"
     xmlns:xlink="http://www.w3.org/1999/xlink">
    <g class="transform-group">
        <g transform="scale(0.1953125, 0.1953125)">
            <path d="M51.322898 204.830725 51.322898 102.415362c0-56.558884 45.856478-102.415362 102.415362-102.415362l716.907536 0c56.558884 0 102.415362 45.856478 102.415362 102.415362l0 102.415362L51.322898 204.830725zM921.46942 102.287343c0-28.26664-22.941041-51.207681-51.207681-51.207681L153.354203 51.079662c-28.26664 0-51.207681 22.941041-51.207681 51.207681l0 51.207681 819.322898 0L921.46942 102.287343zM972.677102 921.584638c0 56.558884-45.856478 102.415362-102.415362 102.415362L153.354203 1024c-56.558884 0-102.415362-45.856478-102.415362-102.415362l0-665.699855 921.738261 0L972.677102 921.584638zM921.46942 307.092464 102.146522 307.092464l0 614.492174c0 28.26664 22.915437 51.207681 51.207681 51.207681l716.907536 0c28.26664 0 51.207681-22.941041 51.207681-51.207681L921.46942 307.092464z"
                  fill="#ffffff"></path>
        </g>
    </g>
</svg>