<?xml version="1.0" standalone="no"?><!DOCTYPE svg PUBLIC "-//W3C//DTD SVG 1.1//EN"
        "http://www.w3.org/Graphics/SVG/1.1/DTD/svg11.dtd">
<svg width="200" height="200" viewBox="0 0 200 200" version="1.1" xmlns="http://www.w3.org/2000/svg"
     xmlns:xlink="http://www.w3.org/1999/xlink">

    <g class="transform-group">
        <g transform="scale(0.1953125, 0.1953125)">
            <path d="M612.112 366.048c-15.232-19.488-30.976-39.68-30.976-53.728L581.136 67.584 555.504 67.584 555.504 0 470.256 0l0 67.584L442.864 67.584l0 244.736c0 14.016-15.744 34.208-30.976 53.728C389.616 394.56 364.4 426.88 364.4 464.192l0 504.832C364.4 991.2 379.44 1024 411.76 1024l200.448 0c32.32 0 47.36-32.8 47.36-54.976L659.568 464.192C659.6 426.88 634.384 394.56 612.112 366.048zM630.608 969.024c0 7.648-5.312 26.016-18.4 26.016L411.76 995.04c-13.12 0-18.4-18.336-18.4-26.016L393.36 464.192c0-27.36 21.024-54.272 41.344-80.288 19.104-24.48 37.12-47.52 37.12-71.552L471.824 198.016l80.32 0 0 114.304c0 24.032 18.016 47.104 37.12 71.552 20.32 26.016 41.344 52.896 41.344 80.288L630.608 969.024zM438.064 467.744c-4.32 13.728-5.568 30.56-6.432 45.184-0.896 15.36-1.856 31.552-2.848 48.352-1.568 33.536-2.304 69.28-2.56 105.056 0.192 35.744 0.416 71.52 2.016 105.056 1.216 33.536 3.296 64.8 5.76 91.616 4.512 53.664 10.976 89.408 10.976 89.408s6.496-35.744 11.008-89.408c2.464-26.816 4.544-58.08 5.76-91.616 1.6-33.536 1.824-69.312 2.016-105.056-0.224-35.776-0.96-71.52-2.56-105.056-0.96-16.768-1.92-32.96-2.816-48.352-1.056-16.128-2.656-28.512-0.64-40.992 3.264-25.216 10.496-46.624 15.296-61.408 4.96-14.848 8.384-23.232 8.384-23.232s-5.792 6.944-14.528 20.256C458.448 421.024 446.448 440.512 438.064 467.744z"
                  fill="#ffffff"></path>
        </g>
    </g>
</svg>