<?xml version="1.0" standalone="no"?><!DOCTYPE svg PUBLIC "-//W3C//DTD SVG 1.1//EN"
        "http://www.w3.org/Graphics/SVG/1.1/DTD/svg11.dtd">
<svg width="200" height="200" viewBox="0 0 200 200" version="1.1" xmlns="http://www.w3.org/2000/svg"
     xmlns:xlink="http://www.w3.org/1999/xlink">

    <g class="transform-group">
        <g transform="scale(0.1953125, 0.1953125)">
            <path d="M813.312 525.504C785.792 584.192 675.072 655.296 512 655.296 349.952 655.296 234.688 585.088 210.432 526.464 88 531.968 0 605.184 0 648.704 0 720.896 229.184 823.296 512 823.296 794.752 823.296 1024 720.896 1024 648.704 1024 604.608 936 548.416 813.312 525.504L813.312 525.504ZM644.928 204.608C611.904 204.608 543.68 227.264 512.768 227.264 481.856 227.264 413.632 204.608 380.672 204.608 309.376 204.608 264.832 292.416 258.624 326.016L257.344 481.344C293.312 513.728 360.448 554.432 434.048 560.576 459.648 562.688 486.656 563.968 514.752 563.968 542.72 563.968 569.664 562.688 595.328 560.576 668.928 554.368 728.064 518.72 766.08 482.432L765.76 328C760.256 293.056 715.584 204.608 644.928 204.608L644.928 204.608Z"
                  fill="#ffffff"></path>
        </g>
    </g>
</svg>