<?xml version="1.0" standalone="no"?><!DOCTYPE svg PUBLIC "-//W3C//DTD SVG 1.1//EN"
        "http://www.w3.org/Graphics/SVG/1.1/DTD/svg11.dtd">
<svg width="800.1953125" height="200" viewBox="0 0 800.1953125 200" version="1.1" xmlns="http://www.w3.org/2000/svg"
     xmlns:xlink="http://www.w3.org/1999/xlink">

    <g class="transform-group">
        <g transform="scale(0.1953125, 0.1953125)">
            <path d="M1236.3 350.365l271.667 154.423-0.415-27.54-271.667 164.698c-7.532 4.564-9.923 14.393-5.361 21.923 4.564 7.532 14.393 9.924 21.922 5.361l271.667-164.698c10.403-6.319 10.211-21.509-0.382-27.508l-271.667-154.423c-7.657-4.34-17.392-1.659-21.763 6s-1.659 17.392 6 21.763zM2864.036 641.721l-271.667-154.423 0.382 27.508 271.667-164.698c7.532-4.564 9.956-14.393 5.361-21.923-4.564-7.532-14.392-9.923-21.922-5.361l-271.667 164.697c-10.402 6.319-10.211 21.509 0.382 27.508l271.667 154.422c7.657 4.34 17.392 1.659 21.764-6 4.372-7.627 1.691-17.36-5.967-21.733zM2280.846 463.079c-7.723 116.958-105.086 208.481-222.905 208.481s-215.183-91.524-222.905-208.481c-0.575-8.807-8.168-15.444-16.977-14.872-8.807 0.575-15.444 8.168-14.872 16.977 8.807 133.679 120.083 238.287 254.752 238.287s245.946-104.606 254.752-238.287c0.574-8.807-6.097-16.402-14.872-16.977s-16.403 6.097-16.977 14.872z"
                  fill="#ffffff"></path>
        </g>
    </g>
</svg>